<svg width="19" height="20" viewBox="0 0 19 20" fill="none" xmlns="http://www.w3.org/2000/svg">
<path d="M17.4167 11.5833V10C17.4167 9.33579 17.4167 8.74545 17.4064 8.21875H1.59354C1.58333 8.74545 1.58333 9.33579 1.58333 10V11.5833C1.58333 14.5689 1.58333 16.0617 2.51082 16.9891C3.43832 17.9167 4.9311 17.9167 7.91666 17.9167H11.0833C14.0689 17.9167 15.5617 17.9167 16.4891 16.9891C17.4167 16.0617 17.4167 14.5689 17.4167 11.5833Z" fill="#0395CC"/>
<path d="M6.13542 2.47925C6.13542 2.15133 5.86959 1.8855 5.54167 1.8855C5.21376 1.8855 4.94792 2.15133 4.94792 2.47925V3.7295C3.80845 3.82073 3.06041 4.04467 2.51083 4.59424C1.96126 5.14382 1.73733 5.89186 1.64609 7.03133H17.3539C17.2627 5.89186 17.0387 5.14382 16.4892 4.59424C15.9396 4.04467 15.1915 3.82073 14.0521 3.7295V2.47925C14.0521 2.15133 13.7862 1.8855 13.4583 1.8855C13.1304 1.8855 12.8646 2.15133 12.8646 2.47925V3.67696C12.3379 3.66675 11.7475 3.66675 11.0833 3.66675H7.91667C7.25244 3.66675 6.6621 3.66675 6.13542 3.67696V2.47925Z" fill="#0395CC"/>
</svg>
