<svg width="20" height="20" viewBox="0 0 20 20" fill="none" xmlns="http://www.w3.org/2000/svg">
<g opacity="0.8">
<path fill-rule="evenodd" clip-rule="evenodd" d="M14.6667 2.66667H5.33333V0H4V2.66667H2C0.895431 2.66667 0 3.56209 0 4.66667V15.3333C0 16.4379 0.895432 17.3333 2 17.3333H18C19.1045 17.3333 20 16.4379 20 15.3333V4.66667C20 3.56209 19.1045 2.66667 18 2.66667H16V0H14.6667V2.66667ZM4 8C4 6.52724 5.19391 5.33333 6.66667 5.33333C8.13943 5.33333 9.33333 6.52724 9.33333 8C9.33333 9.47276 8.13943 10.6667 6.66667 10.6667C5.19391 10.6667 4 9.47276 4 8ZM3.17596 14.1573C3.83705 12.8352 5.18843 12 6.66667 12C8.14492 12 9.49629 12.8352 10.1574 14.1573L10.5963 15.0352C10.6996 15.2419 10.6886 15.4873 10.5671 15.6839C10.4456 15.8804 10.2311 16 10 16H3.33333C3.10228 16 2.88771 15.8804 2.76624 15.6839C2.64476 15.4873 2.63372 15.2419 2.73705 15.0352L3.17596 14.1573ZM12 8H16V6.66667H12V8ZM12 12H16V10.6667H12V12Z" fill="#01B9FD"/>
</g>
</svg>
