<svg width="17" height="16" viewBox="0 0 17 16" fill="none" xmlns="http://www.w3.org/2000/svg">
<path d="M16.1871 7.43791L9.06208 0.312909C8.98848 0.238707 8.90092 0.179812 8.80445 0.13962C8.70798 0.0994281 8.6045 0.0787354 8.49999 0.0787354C8.39548 0.0787354 8.29201 0.0994281 8.19554 0.13962C8.09906 0.179812 8.0115 0.238707 7.93791 0.312909L0.81291 7.43791C0.70306 7.54924 0.628647 7.69061 0.599059 7.84418C0.569471 7.99776 0.586035 8.15665 0.64666 8.30083C0.706051 8.4454 0.806908 8.56916 0.936519 8.6565C1.06613 8.74385 1.2187 8.79088 1.37499 8.79166H2.16666V14.5708C2.18109 14.9411 2.34163 15.2906 2.61315 15.5429C2.88466 15.7951 3.24504 15.9295 3.61541 15.9167H5.72916C5.93912 15.9167 6.14049 15.8333 6.28895 15.6848C6.43742 15.5363 6.52083 15.335 6.52083 15.125V11.2458C6.52083 11.0359 6.60423 10.8345 6.7527 10.686C6.90117 10.5376 7.10253 10.4542 7.31249 10.4542H9.68749C9.89746 10.4542 10.0988 10.5376 10.2473 10.686C10.3958 10.8345 10.4792 11.0359 10.4792 11.2458V15.125C10.4792 15.335 10.5626 15.5363 10.711 15.6848C10.8595 15.8333 11.0609 15.9167 11.2708 15.9167H13.3846C13.7549 15.9295 14.1153 15.7951 14.3868 15.5429C14.6583 15.2906 14.8189 14.9411 14.8333 14.5708V8.79166H15.625C15.7813 8.79088 15.9339 8.74385 16.0635 8.6565C16.1931 8.56916 16.2939 8.4454 16.3533 8.30083C16.4139 8.15665 16.4305 7.99776 16.4009 7.84418C16.3713 7.69061 16.2969 7.54924 16.1871 7.43791Z" fill="#0395CC"/>
</svg>
