<svg width="16" height="20" viewBox="0 0 16 20" fill="none" xmlns="http://www.w3.org/2000/svg">
<path fill-rule="evenodd" clip-rule="evenodd" d="M12.125 5.47434C12.125 8.40309 10.3558 10.9166 8 10.9166C5.64233 10.9166 3.875 8.40308 3.875 5.47342C3.875 2.54559 5.39667 0.833252 8 0.833252C10.6033 0.833252 12.125 2.54467 12.125 5.47434ZM0.760168 17.4634C1.11308 17.8833 2.63292 19.1666 8 19.1666C13.3671 19.1666 14.886 17.8833 15.2398 17.4643C15.2727 17.4241 15.2969 17.3775 15.3111 17.3276C15.3253 17.2776 15.3291 17.2253 15.3223 17.1738C15.2417 16.3653 14.5138 12.7499 8 12.7499C1.48617 12.7499 0.758335 16.3653 0.676751 17.1738C0.670113 17.2253 0.674088 17.2777 0.688433 17.3277C0.702778 17.3776 0.72719 17.4232 0.760168 17.4634Z" fill="#0395CC"/>
</svg>
