<svg width="19" height="18" viewBox="0 0 19 18" fill="none" xmlns="http://www.w3.org/2000/svg">
<path d="M9.5 17.3334C11.2306 17.3334 12.9223 16.8447 14.3612 15.929C15.8002 15.0133 16.9217 13.7118 17.5839 12.1891C18.2462 10.6664 18.4195 8.99084 18.0819 7.37433C17.7442 5.75782 16.9109 4.27297 15.6872 3.10753C14.4635 1.94209 12.9044 1.14842 11.207 0.826874C9.50971 0.505331 7.75037 0.670359 6.15152 1.30109C4.55267 1.93182 3.1861 2.99992 2.22464 4.37033C1.26318 5.74074 0.75 7.35191 0.75 9.00008C0.75 11.2102 1.67187 13.3298 3.31282 14.8926C4.12533 15.6665 5.08992 16.2803 6.15152 16.6991C7.21312 17.1179 8.35093 17.3334 9.5 17.3334ZM9.5 15.6667C9.24041 15.6667 8.98665 15.5934 8.77081 15.4561C8.55497 15.3187 8.38675 15.1235 8.28741 14.8951C8.18807 14.6667 8.16208 14.4154 8.21272 14.1729C8.26336 13.9304 8.38837 13.7077 8.57192 13.5329C8.75548 13.3581 8.98934 13.239 9.24394 13.1908C9.49854 13.1425 9.76244 13.1673 10.0023 13.2619C10.2421 13.3565 10.4471 13.5167 10.5913 13.7223C10.7355 13.9278 10.8125 14.1695 10.8125 14.4167C10.8125 14.7483 10.6742 15.0662 10.4281 15.3006C10.1819 15.5351 9.8481 15.6667 9.5 15.6667ZM6 6.49508C5.9871 5.85485 6.17272 5.22521 6.53364 4.68493C6.89456 4.14466 7.41474 3.71774 8.02912 3.45758C8.57393 3.22585 9.17123 3.12851 9.76595 3.17453C10.3607 3.22055 10.9336 3.40846 11.432 3.72092C11.8916 4.01069 12.2728 4.39973 12.5446 4.85636C12.8164 5.31298 12.9711 5.82429 12.9962 6.34866C13.0213 6.87302 12.916 7.39561 12.6889 7.87387C12.4617 8.35214 12.1192 8.77257 11.6892 9.10092C11.0862 9.54351 10.6525 10.1624 10.4546 10.8626C10.4001 11.0774 10.2582 11.2628 10.0601 11.378C9.86206 11.4932 9.62407 11.5287 9.3985 11.4768C9.17293 11.4248 8.97827 11.2897 8.85733 11.101C8.73639 10.9124 8.69909 10.6857 8.75362 10.4709C9.03845 9.41246 9.68489 8.47432 10.5911 7.80425C10.8065 7.64017 10.9781 7.42992 11.092 7.19066C11.2058 6.95139 11.2587 6.68988 11.2462 6.42747C11.2338 6.16505 11.1564 5.90915 11.0203 5.68064C10.8843 5.45214 10.6934 5.25749 10.4634 5.11258C10.2056 4.95192 9.90899 4.85685 9.60171 4.83642C9.29443 4.816 8.98678 4.87091 8.70812 4.99592C8.41264 5.13061 8.16448 5.34398 7.99366 5.61019C7.82284 5.8764 7.73669 6.18405 7.74562 6.49592C7.73054 6.70625 7.63232 6.90333 7.47073 7.04743C7.30915 7.19153 7.09622 7.27195 6.87485 7.27248C6.65348 7.27301 6.44013 7.19361 6.27779 7.05028C6.11545 6.90695 6.01619 6.71035 6 6.50008V6.49508Z" fill="url(#paint0_linear_679_2482)"/>
<defs>
<linearGradient id="paint0_linear_679_2482" x1="-3.82661" y1="-17.3157" x2="33.4959" y2="-8.13557" gradientUnits="userSpaceOnUse">
<stop stop-color="#00FEFC"/>
<stop offset="1" stop-color="#0002FE"/>
</linearGradient>
</defs>
</svg>
