<svg width="10" height="18" viewBox="0 0 10 18" fill="none" xmlns="http://www.w3.org/2000/svg">
<path fill-rule="evenodd" clip-rule="evenodd" d="M1.64872 1C1.54561 0.998919 1.45051 1.02489 1.37581 1.0668C1.30165 1.10841 1.25826 1.15919 1.2363 1.20072C1.21521 1.24061 1.21089 1.27638 1.21526 1.30759C1.21974 1.33958 1.23587 1.38297 1.27852 1.42904L1.28411 1.43508L8.07011 9.0107L1.06497 16.5685C1.06511 16.5684 1.06483 16.5687 1.06497 16.5685C1.00735 16.6311 0.996758 16.6892 1.00084 16.729C1.00513 16.7709 1.03046 16.8386 1.11507 16.9018C1.2027 16.9674 1.33414 17.01 1.47929 16.998C1.62426 16.9859 1.73454 16.9238 1.79627 16.857L1.79715 16.856L8.93818 9.14583C8.9873 9.09134 9 9.04101 9 9.00564C9 8.9699 8.98704 8.9189 8.93667 8.86377L8.92966 8.8561L2.03101 1.14535C2.03074 1.14505 2.03046 1.14474 2.03019 1.14444C1.99721 1.10815 1.94879 1.07153 1.88391 1.04384C1.81837 1.01587 1.74229 0.999808 1.66229 1.00005L1.64872 1ZM9.67496 9.82199L2.53082 17.5355C2.28829 17.7981 1.93978 17.9632 1.56196 17.9945C1.18414 18.0259 0.80796 17.9209 0.51617 17.7027C0.224379 17.4845 0.040882 17.1709 0.0060481 16.8309C-0.0287868 16.491 0.0878933 16.1525 0.330421 15.89L6.71728 8.99921L0.544745 2.10843C0.370023 1.91973 0.259037 1.68994 0.224917 1.44626C0.190797 1.20257 0.234971 0.955195 0.352215 0.733395C0.469459 0.511596 0.654864 0.324654 0.886491 0.194693C1.11812 0.0647324 1.38628 -0.00281068 1.65923 5.79496e-05C1.87269 -0.000594382 2.0836 0.0417964 2.27646 0.12411C2.46932 0.206425 2.63924 0.326575 2.77372 0.47573L9.67496 8.18929C9.88511 8.41932 10 8.70786 10 9.00564C10 9.30341 9.88511 9.59195 9.67496 9.82199Z" fill="black"/>
</svg>
