<svg width="42" height="42" viewBox="0 0 42 42" fill="none" xmlns="http://www.w3.org/2000/svg">
<g clip-path="url(#clip0_1_901)">
<g opacity="0.08">
<path d="M10.5862 42C4.47489 42 0.368408 37.8936 0.368408 31.7821V12.4283C0.368408 6.31693 4.47481 2.21045 10.5862 2.21045H31.4138C37.5251 2.21045 41.6316 6.31685 41.6316 12.4283V31.7821C41.6316 37.8935 37.5252 42 31.4138 42H10.5862Z" fill="black"/>
</g>
<path d="M10.5862 41.2631C4.47489 41.2631 0.368408 37.1567 0.368408 31.0453V11.6914C0.368408 5.58012 4.47481 1.47363 10.5862 1.47363H31.4138C37.5251 1.47363 41.6316 5.58004 41.6316 11.6914V31.0453C41.6316 37.1567 37.5252 41.2631 31.4138 41.2631H10.5862Z" fill="url(#paint0_linear_1_901)"/>
<path d="M0.368408 11.7895V11.6914C0.368408 5.58012 4.47481 1.47363 10.5862 1.47363H31.4138C37.5251 1.47363 41.6316 5.58004 41.6316 11.6914V11.7895H0.368408Z" fill="#0002FE"/>
<g opacity="0.16">
<path d="M31.4138 1.47363H10.5862C4.47489 1.47363 0.368408 5.58004 0.368408 11.6914V31.0453C0.368408 37.1567 4.47481 41.2631 10.5862 41.2631H31.4138C37.5251 41.2631 41.6316 37.1567 41.6316 31.0453V11.6914C41.6316 5.58004 37.5252 1.47363 31.4138 1.47363ZM40.1579 31.0453C40.1579 36.3573 36.7257 39.7894 31.4138 39.7894H10.5862C5.27429 39.7894 1.8421 36.3573 1.8421 31.0453V11.6914C1.8421 6.37951 5.27429 2.94732 10.5862 2.94732H31.4138C36.7257 2.94732 40.1579 6.37951 40.1579 11.6914V31.0453Z" fill="url(#paint1_linear_1_901)"/>
</g>
<path d="M14.7929 24.2317H16.4854C18.3894 24.2317 19.6987 23.0631 19.6987 21.4413C19.6987 19.8695 18.5102 18.7614 16.5458 18.7614C14.7427 18.7614 13.4628 19.8497 13.3118 21.4612H11.9818C12.1528 19.124 13.9867 17.5522 16.6055 17.5522C19.1645 17.5522 21.0884 19.1136 21.0884 21.2696C21.0884 23.0933 19.9095 24.4026 18.0563 24.7349V24.7754C20.2823 24.9066 21.7133 26.2867 21.7133 28.3417C21.7133 30.7998 19.5174 32.5528 16.6865 32.5528C13.7547 32.5528 11.7703 30.8802 11.6797 28.5532H13.0097C13.1202 30.175 14.5814 31.3437 16.6769 31.3437C18.7821 31.3437 20.314 30.1043 20.314 28.3816C20.314 26.5277 18.8838 25.3996 16.5465 25.3996H14.7936C14.7929 25.4003 14.7929 24.2317 14.7929 24.2317Z" fill="#413D3D"/>
<path d="M27.5167 19.2447H27.4761C27.2448 19.3855 24.7263 21.2091 23.5775 21.9246V20.4539C24.0108 20.1819 27.093 18.0061 27.4961 17.7644H28.846V32.3214H27.516L27.5167 19.2447Z" fill="#413D3D"/>
<path opacity="0.24" d="M9.94734 8.84213C11.1682 8.84213 12.1578 7.85246 12.1578 6.63164C12.1578 5.41082 11.1682 4.42114 9.94734 4.42114C8.72652 4.42114 7.73685 5.41082 7.73685 6.63164C7.73685 7.85246 8.72652 8.84213 9.94734 8.84213Z" fill="black"/>
<path opacity="0.24" d="M32.0527 8.84213C33.2735 8.84213 34.2632 7.85246 34.2632 6.63164C34.2632 5.41082 33.2735 4.42114 32.0527 4.42114C30.8318 4.42114 29.8422 5.41082 29.8422 6.63164C29.8422 7.85246 30.8318 8.84213 32.0527 8.84213Z" fill="black"/>
<g opacity="0.16">
<path d="M31.4138 1.47363H10.5862C4.47489 1.47363 0.368408 5.58004 0.368408 11.6914V31.0453C0.368408 37.1567 4.47481 41.2631 10.5862 41.2631H31.4138C37.5251 41.2631 41.6316 37.1567 41.6316 31.0453V11.6914C41.6316 5.58004 37.5252 1.47363 31.4138 1.47363ZM40.8947 31.0453C40.8947 36.7161 37.0845 40.5262 31.4138 40.5262H10.5862C4.91548 40.5262 1.10529 36.7161 1.10529 31.0453V11.6914C1.10529 6.02071 4.91548 2.21052 10.5862 2.21052H31.4138C37.0845 2.21052 40.8947 6.02071 40.8947 11.6914V31.0453Z" fill="black"/>
</g>
<path d="M9.94735 7.36846C9.54063 7.36846 9.21054 7.03836 9.21054 6.63165V0.736805C9.21054 0.330094 9.54063 0 9.94735 0C10.3541 0 10.6841 0.330094 10.6841 0.736805V6.63157C10.6842 7.03828 10.3541 7.36846 9.94735 7.36846Z" fill="url(#paint2_linear_1_901)"/>
<path d="M32.0526 7.36846C31.6459 7.36846 31.3158 7.03836 31.3158 6.63165V0.736805C31.3158 0.330094 31.6459 0 32.0526 0C32.4593 0 32.7894 0.330094 32.7894 0.736805V6.63157C32.7894 7.03828 32.4593 7.36846 32.0526 7.36846Z" fill="url(#paint3_linear_1_901)"/>
</g>
<defs>
<linearGradient id="paint0_linear_1_901" x1="21" y1="41.261" x2="21" y2="1.47133" gradientUnits="userSpaceOnUse">
<stop stop-color="#ECECEC"/>
<stop offset="1" stop-color="white"/>
</linearGradient>
<linearGradient id="paint1_linear_1_901" x1="21" y1="41.261" x2="21" y2="1.47133" gradientUnits="userSpaceOnUse">
<stop/>
<stop offset="0.06" stop-opacity="0"/>
</linearGradient>
<linearGradient id="paint2_linear_1_901" x1="9.94727" y1="7.36616" x2="9.94727" y2="-0.00229743" gradientUnits="userSpaceOnUse">
<stop stop-color="white"/>
<stop offset="1" stop-color="#DCDCDC"/>
</linearGradient>
<linearGradient id="paint3_linear_1_901" x1="32.0526" y1="7.36616" x2="32.0526" y2="-0.00229743" gradientUnits="userSpaceOnUse">
<stop stop-color="white"/>
<stop offset="1" stop-color="#DCDCDC"/>
</linearGradient>
<clipPath id="clip0_1_901">
<rect width="42" height="42" fill="white"/>
</clipPath>
</defs>
</svg>
